# File created by Blade
# Date/Time:  Wed Jan 21 16:02:01 2015
# Frame Rate: 120.000 fps
#------------------------------------------------------
:FULLY-SPECIFIED
:DEGREES
359
root 19.052340 32.565657 -17.792364 -172.493754 4.519429 -176.485112
Spine -16.964881 1.748084 15.168621
Head 28.403492 10.110678 -14.424664
LeftShoulder -20.606825 -21.721556 -6.005241
LeftArm -23.431646 13.109974 -74.512297
LeftForeArm 4.650012 -0.000000 6.865754
LeftHand -1.474923 -0.000000 -0.332224
LeftHandThumb1 -26.253704 0.000000 33.147579
RightShoulder -10.733228 -16.956321 1.939702
RightArm 9.528816 -15.033913 69.702843
RightForeArm -23.724216 -0.000000 11.763077
RightHand -1.203570 -0.000000 1.996641
RightHandThumb1 -24.326973 -0.000000 -32.862282
LeftUpLeg 14.056790 3.577929 -17.008197
LeftLeg -3.656040 -0.000000 0.000000
LeftFoot -33.343012 21.472968 -12.733368
LeftToeBase 17.520536 -0.000000 -0.000000
RightUpLeg -17.898503 11.615944 23.091506
RightLeg -2.654764 -0.000000 0.000000
RightFoot -0.480033 -32.225129 -5.157925
RightToeBase 21.085259 -0.000000 -0.000000
360
root 19.042237 32.565945 -17.788242 -172.479745 4.522318 -176.456001
Spine -16.959581 1.742862 15.306622
Head 28.162758 10.166543 -14.552185
LeftShoulder -20.582586 -21.722102 -6.029646
LeftArm -23.366752 13.104774 -74.507134
LeftForeArm 4.658867 -0.000000 6.903291
LeftHand -1.488475 -0.000000 -0.331154
LeftHandThumb1 -26.253704 0.000000 33.147579
RightShoulder -10.704256 -16.972134 1.901292
RightArm 9.572885 -14.945862 69.686890
RightForeArm -23.617366 -0.000000 11.751070
RightHand -1.181476 0.000000 1.979710
RightHandThumb1 -24.326973 -0.000000 -32.862282
LeftUpLeg 14.032425 3.549045 -17.002342
LeftLeg -3.647367 -0.000000 0.000000
LeftFoot -33.340057 21.485157 -12.740444
LeftToeBase 17.472270 -0.000000 -0.000000
RightUpLeg -17.927999 11.632525 23.097617
RightLeg -2.635238 -0.000000 0.000000
RightFoot -0.469187 -32.241444 -5.156453
RightToeBase 21.178666 -0.000000 -0.000000
361
root 19.032172 32.566137 -17.784654 -172.470805 4.550024 -176.424527
Spine -16.943895 1.759637 15.447611
Head 27.898334 10.214542 -14.669970
LeftShoulder -20.551759 -21.764238 -6.043154
LeftArm -23.361278 13.116212 -74.517341
LeftForeArm 4.656517 0.000000 6.936906
LeftHand -1.457572 -0.000000 -0.373124
LeftHandThumb1 -26.253704 0.000000 33.147579
RightShoulder -10.689779 -17.057761 1.870566
RightArm 9.685305 -14.797616 69.668515
RightForeArm -23.565134 -0.000000 11.732204
RightHand -1.123385 -0.000000 1.957401
RightHandThumb1 -24.326973 -0.000000 -32.862282
LeftUpLeg 14.014138 3.539761 -16.999428
LeftLeg -3.646007 -0.000000 0.000000
LeftFoot -33.342565 21.501079 -12.746336
LeftToeBase 17.469499 -0.000000 -0.000000
RightUpLeg -17.946310 11.671610 23.103759
RightLeg -2.609493 -0.000000 0.000000
RightFoot -0.497365 -32.247648 -5.133123
RightToeBase 21.141615 -0.000000 -0.000000
362
root 19.020697 32.566098 -17.780429 -172.464920 4.564916 -176.396751
Spine -16.926592 1.770020 15.591597
Head 27.665667 10.313561 -14.786961
LeftShoulder -20.512001 -21.817706 -6.064629
LeftArm -23.361886 13.110830 -74.523423
LeftForeArm 4.736193 -0.000000 6.960996
LeftHand -1.459580 -0.000000 -0.460351
LeftHandThumb1 -26.253704 0.000000 33.147579
RightShoulder -10.681357 -17.075631 1.826862
RightArm 9.741032 -14.704595 69.648551
RightForeArm -23.450191 -0.000000 11.698794
RightHand -1.017089 0.000000 1.911069
RightHandThumb1 -24.326973 -0.000000 -32.862282
LeftUpLeg 13.990688 3.531232 -16.998263
LeftLeg -3.631172 -0.000000 0.000000
LeftFoot -33.358319 21.522526 -12.750029
LeftToeBase 17.515898 -0.000000 -0.000000
RightUpLeg -17.967564 11.703477 23.102243
RightLeg -2.587188 -0.000000 0.000000
RightFoot -0.496393 -32.259663 -5.138668
RightToeBase 21.082298 -0.000000 -0.000000
363
root 19.009343 32.566028 -17.775882 -172.467712 4.581088 -176.363445
Spine -16.885088 1.776154 15.740580
Head 27.399439 10.362005 -14.883868
LeftShoulder -20.475164 -21.880107 -6.086041
LeftArm -23.366739 13.144691 -74.551074
LeftForeArm 4.800479 -0.000000 6.968399
LeftHand -1.445295 -0.000000 -0.556532
LeftHandThumb1 -26.253704 0.000000 33.147579
RightShoulder -10.624706 -17.000161 1.769733
RightArm 9.673508 -14.588633 69.640846
RightForeArm -23.227957 -0.000000 11.690022
RightHand -0.848545 -0.000000 1.913963
RightHandThumb1 -24.326973 -0.000000 -32.862282
LeftUpLeg 13.980896 3.543287 -16.988049
LeftLeg -3.623197 -0.000000 0.000000
LeftFoot -33.357533 21.513116 -12.742463
LeftToeBase 17.462538 -0.000000 -0.000000
RightUpLeg -17.970778 11.732539 23.110409
RightLeg -2.582800 -0.000000 0.000000
RightFoot -0.493125 -32.284710 -5.113243
RightToeBase 21.117311 -0.000000 -0.000000
364
root 18.996514 32.566031 -17.769113 -172.455115 4.575703 -176.338700
Spine -16.878104 1.766526 15.892083
Head 27.147307 10.442465 -15.006920
LeftShoulder -20.424460 -21.917573 -6.129824
LeftArm -23.349369 13.178086 -74.560234
LeftForeArm 4.754446 -0.000000 6.942624
LeftHand -1.460682 -0.000000 -0.494237
LeftHandThumb1 -26.253704 0.000000 33.147579
RightShoulder -10.559839 -16.981329 1.714160
RightArm 9.650615 -14.463366 69.635432
RightForeArm -23.101333 0.000000 11.697614
RightHand -0.813962 0.000000 1.868559
RightHandThumb1 -24.326973 -0.000000 -32.862282
LeftUpLeg 13.948880 3.513820 -16.989235
LeftLeg -3.602931 -0.000000 0.000000
LeftFoot -33.365026 21.523061 -12.743952
LeftToeBase 17.504592 -0.000000 -0.000000
RightUpLeg -17.999547 11.758568 23.101413
RightLeg -2.579714 -0.000000 0.000000
RightFoot -0.475590 -32.321032 -5.150078
RightToeBase 21.212226 -0.000000 -0.000000
365
root 18.983720 32.566602 -17.763592 -172.437054 4.583959 -176.310435
Spine -16.876580 1.756598 16.049091
Head 26.912523 10.535274 -15.105647
LeftShoulder -20.398792 -21.952118 -6.159432
LeftArm -23.312516 13.131064 -74.538426
LeftForeArm 4.781469 -0.000000 6.871718
LeftHand -1.480490 -0.000000 -0.451750
LeftHandThumb1 -26.253704 0.000000 33.147579
RightShoulder -10.435717 -16.876269 1.646238
RightArm 9.494832 -14.357547 69.659662
RightForeArm -23.061110 0.000000 11.754382
RightHand -0.900821 0.000000 1.730131
RightHandThumb1 -24.326973 -0.000000 -32.862282
LeftUpLeg 13.915619 3.509640 -16.983963
LeftLeg -3.591069 -0.000000 0.000000
LeftFoot -33.375000 21.508913 -12.752634
LeftToeBase 17.514568 -0.000000 -0.000000
RightUpLeg -18.021666 11.790339 23.098112
RightLeg -2.585716 -0.000000 0.000000
RightFoot -0.462472 -32.337258 -5.161595
RightToeBase 21.223771 -0.000000 -0.000000
366
root 18.970017 32.567343 -17.756384 -172.409566 4.581353 -176.293714
Spine -16.892122 1.749636 16.198692
Head 26.683000 10.608705 -15.232141
LeftShoulder -20.341918 -22.008919 -6.190774
LeftArm -23.349959 13.164650 -74.559715
LeftForeArm 4.856479 0.000000 6.853588
LeftHand -1.431748 -0.000000 -0.602892
LeftHandThumb1 -26.253704 0.000000 33.147579
RightShoulder -10.395908 -16.871282 1.604113
RightArm 9.517441 -14.249103 69.641046
RightForeArm -22.974006 -0.000000 11.745908
RightHand -1.011044 -0.000000 1.671695
RightHandThumb1 -24.326973 -0.000000 -32.862282
LeftUpLeg 13.870258 3.505702 -16.987845
LeftLeg -3.576477 -0.000000 0.000000
LeftFoot -33.364934 21.484653 -12.762180
LeftToeBase 17.540620 -0.000000 -0.000000
RightUpLeg -18.061781 11.810028 23.083345
RightLeg -2.586917 -0.000000 0.000000
RightFoot -0.458232 -32.368693 -5.117936
RightToeBase 21.155040 -0.000000 -0.000000
367
root 18.956842 32.567152 -17.748925 -172.387205 4.577712 -176.276444
Spine -16.895166 1.733922 16.350655
Head 26.443807 10.702221 -15.332889
LeftShoulder -20.306680 -22.064817 -6.219523
LeftArm -23.361956 13.143369 -74.555845
LeftForeArm 4.890112 -0.000000 6.813716
LeftHand -1.454542 -0.000000 -0.559580
LeftHandThumb1 -26.253704 0.000000 33.147579
RightShoulder -10.390309 -16.859922 1.559135
RightArm 9.576204 -14.150774 69.598035
RightForeArm -22.787070 0.000000 11.702645
RightHand -0.913780 -0.000000 1.687007
RightHandThumb1 -24.326973 -0.000000 -32.862282
LeftUpLeg 13.837193 3.481848 -16.996231
LeftLeg -3.583824 -0.000000 0.000000
LeftFoot -33.382167 21.510996 -12.770496
LeftToeBase 17.567926 -0.000000 -0.000000
RightUpLeg -18.096604 11.812364 23.077199
RightLeg -2.591355 -0.000000 0.000000
RightFoot -0.448742 -32.380548 -5.151263
RightToeBase 21.224005 -0.000000 -0.000000
368
root 18.944746 32.567326 -17.742213 -172.360235 4.570287 -176.260979
Spine -16.916271 1.714034 16.487510
Head 26.224833 10.767129 -15.418444
LeftShoulder -20.255662 -22.096717 -6.245444
LeftArm -23.389681 13.042691 -74.522006
LeftForeArm 4.966116 0.000000 6.815472
LeftHand -1.477425 0.000000 -0.543367
LeftHandThumb1 -26.253704 0.000000 33.147579
RightShoulder -10.301209 -16.840871 1.522900
RightArm 9.536990 -13.989726 69.567492
RightForeArm -22.683438 0.000000 11.739591
RightHand -0.924840 -0.000000 1.763353
RightHandThumb1 -24.326973 -0.000000 -32.862282
LeftUpLeg 13.800239 3.497844 -16.988262
LeftLeg -3.576698 -0.000000 0.000000
LeftFoot -33.369337 21.457414 -12.760920
LeftToeBase 17.588048 -0.000000 -0.000000
RightUpLeg -18.132057 11.819298 23.068847
RightLeg -2.604904 -0.000000 0.000000
RightFoot -0.440412 -32.402801 -5.116432
RightToeBase 21.302385 -0.000000 -0.000000
369
root 18.932462 32.567677 -17.737125 -172.347433 4.561673 -176.245210
Spine -16.929154 1.694090 16.624454
Head 26.003664 10.803764 -15.514945
LeftShoulder -20.210224 -22.113346 -6.272483
LeftArm -23.390333 12.903395 -74.468779
LeftForeArm 5.013524 -0.000000 6.786439
LeftHand -1.493990 -0.000000 -0.527919
LeftHandThumb1 -26.253704 0.000000 33.147579
RightShoulder -10.233371 -16.780288 1.475123
RightArm 9.465642 -13.865990 69.552616
RightForeArm -22.622085 -0.000000 11.782378
RightHand -0.988883 0.000000 1.804603
RightHandThumb1 -24.326973 -0.000000 -32.862282
LeftUpLeg 13.785432 3.508709 -16.980261
LeftLeg -3.574863 -0.000000 0.000000
LeftFoot -33.352855 21.375454 -12.772111
LeftToeBase 17.635388 -0.000000 -0.000000
RightUpLeg -18.150948 11.837439 23.055391
RightLeg -2.616966 -0.000000 0.000000
RightFoot -0.429703 -32.432662 -5.142204
RightToeBase 21.204761 -0.000000 -0.000000
370
root 18.923013 32.567651 -17.731269 -172.329741 4.536567 -176.240699
Spine -16.954905 1.666583 16.719088
Head 25.819255 10.822289 -15.524088
LeftShoulder -20.171311 -22.112443 -6.276137
LeftArm -23.348209 12.718959 -74.378190
LeftForeArm 5.039891 -0.000000 6.706723
LeftHand -1.454581 -0.000000 -0.545262
LeftHandThumb1 -26.253704 0.000000 33.147579
RightShoulder -10.198189 -16.752891 1.478003
RightArm 9.456470 -13.779263 69.505334
RightForeArm -22.542672 -0.000000 11.759641
RightHand -0.945858 -0.000000 1.801213
RightHandThumb1 -24.326973 -0.000000 -32.862282
LeftUpLeg 13.763892 3.487558 -16.978936
LeftLeg -3.569862 -0.000000 0.000000
LeftFoot -33.351673 21.324052 -12.763581
LeftToeBase 17.672499 -0.000000 -0.000000
RightUpLeg -18.176191 11.826769 23.044523
RightLeg -2.637436 -0.000000 0.000000
RightFoot -0.410180 -32.463419 -5.169580
RightToeBase 21.213448 -0.000000 -0.000000
